<svg xmlns="http://www.w3.org/2000/svg" viewBox="0 0 320 176" role="img" aria-labelledby="t d"><title id="t">Salesforce Agentforce</title><desc id="d">Building autonomous AI agents and prompt template actions.</desc><defs><linearGradient id="g" x2="1" y2="1"><stop stop-color="#8b5cf6"/><stop offset="1" stop-color="#ec4899"/></linearGradient></defs><rect width="320" height="176" rx="18" fill="url(#g)"/><rect x="42" y="28" width="236" height="120" rx="13" fill="#fff"/><path d="M42 53h236" stroke="#f5f3ff" stroke-width="2"/><circle cx="59" cy="41" r="4" fill="#8b5cf6"/><circle cx="73" cy="41" r="4" fill="#facc15"/><circle cx="87" cy="41" r="4" fill="#4ade80"/><circle cx="160" cy="100" r="30" fill="#f5f3ff"/><circle cx="160" cy="100" r="24" fill="#a78bfa"/><path d="M148 100c0-6 5-11 12-11s12 5 12 11-5 11-12 11" fill="none" stroke="#fff" stroke-width="3"/><path d="M152 114l8-8 8 8" fill="none" stroke="#fff" stroke-width="3" stroke-linecap="round" stroke-linejoin="round"/><path d="M160 84v6" stroke="#fff" stroke-width="3" stroke-linecap="round"/><circle cx="160" cy="80" r="3" fill="#facc15"/><path d="M220 75l4 8 8 4-8 4-4 8-4-8-8-4 8-4z" fill="#facc15"/><path d="M90 110l2 4 4 2-4 2-2 4-2-4-4-2 4-2z" fill="#facc15"/></svg>
