<svg xmlns="http://www.w3.org/2000/svg" viewBox="0 0 320 176" role="img" aria-labelledby="t d"><title id="t">Lightning Web Components</title><desc id="d">A responsive Salesforce interface built from reusable components.</desc><defs><linearGradient id="g" x2="1" y2="1"><stop stop-color="#fb923c"/><stop offset="1" stop-color="#e11d48"/></linearGradient></defs><rect width="320" height="176" rx="18" fill="url(#g)"/><rect x="42" y="28" width="236" height="120" rx="13" fill="#fff"/><path d="M42 53h236" stroke="#fecdd3" stroke-width="2"/><circle cx="59" cy="41" r="4" fill="#fb7185"/><circle cx="73" cy="41" r="4" fill="#facc15"/><circle cx="87" cy="41" r="4" fill="#4ade80"/><rect x="58" y="68" width="62" height="63" rx="8" fill="#fff1f2"/><rect x="135" y="68" width="127" height="25" rx="7" fill="#ffedd5"/><rect x="135" y="106" width="58" height="25" rx="7" fill="#ffe4e6"/><rect x="204" y="106" width="58" height="25" rx="7" fill="#fff1f2"/><g fill="#e11d48"><rect x="70" y="82" width="38" height="5" rx="2"/><rect x="70" y="94" width="28" height="5" rx="2"/><rect x="70" y="106" width="34" height="5" rx="2"/></g><path d="m246 56 6 10 12 2-9 8 2 12-11-6-10 6 2-12-9-8 12-2z" fill="#facc15"/></svg>
