<svg xmlns="http://www.w3.org/2000/svg" viewBox="0 0 320 176" role="img" aria-labelledby="t d"><title id="t">Salesforce Flow automation</title><desc id="d">A connected automation flow with decision and action nodes.</desc><defs><linearGradient id="g" x2="1" y2="1"><stop stop-color="#10b981"/><stop offset="1" stop-color="#0f766e"/></linearGradient></defs><rect width="320" height="176" rx="18" fill="url(#g)"/><g fill="none" stroke="#a7f3d0" stroke-width="5" stroke-linecap="round"><path d="M57 88h58M145 88h38M213 88h50M130 103v30h68v-30"/></g><g fill="#fff"><circle cx="45" cy="88" r="16"/><rect x="114" y="72" width="32" height="32" rx="7"/><path d="m198 68 20 20-20 20-20-20z"/><circle cx="275" cy="88" r="16"/><rect x="182" y="126" width="32" height="24" rx="6"/></g><g fill="#075875"><path d="m39 88 5 5 9-11-3-3-6 8-3-3z"/><path d="M123 81h14v14h-14z"/><circle cx="198" cy="88" r="5"/><path d="m268 88 5 5 9-11-3-3-6 8-3-3z"/></g><text x="160" y="37" fill="#fff" font-family="Arial" font-size="12" font-weight="700" text-anchor="middle">AUTOMATE • DECIDE • DELIVER</text></svg>
